<?xml version="1.0" standalone="no"?>
<svg xmlns="http://www.w3.org/2000/svg" width="177.53357792067345" height="67.9240666381888" viewBox="0 0 177.53357792067345 67.9240666381888"><g fill="#2f2f2f" color="#2f2f2f" transform="translate(0 0) scale(0.6737363)"><svg width="92.638" height="100.817" x="0.0" y="0.0" viewBox="0 0 92.638 100.817"><path d="M46.769,20.261c0.547,0,1.095,0.181,1.513,0.542l12.837,11.105c0.306,0.264,0.59,0.39,0.827,0.39  c0.413,0,0.686-0.381,0.686-1.082v-2.679c0-1.104,0.896-2,2-2h4.995c1.104,0,2,0.896,2,2v10.46c0,1.104,0.677,2.586,1.513,3.309  l6.235,5.394c0.836,0.723,0.617,1.309-0.487,1.309h-5.261c-1.104,0-2,0.793-2,1.771s0,1.771,0,1.771v26.289c0,1.104-0.896,2-2,2  H23.912c-1.104,0-2-0.896-2-2v-27.83c0-1.104-0.896-2-2-2h-5.261c-1.104,0-1.323-0.586-0.487-1.309l31.093-26.897  C45.674,20.441,46.222,20.261,46.769,20.261 M46.769,17.261c-1.291,0-2.525,0.452-3.475,1.272L12.201,45.432  c-2.044,1.767-1.537,3.692-1.333,4.24c0.204,0.549,1.08,2.337,3.783,2.337h4.261v26.83c0,2.757,2.243,5,5,5h45.715  c2.757,0,5-2.243,5-5V52.55v-0.541h4.261c2.703,0,3.579-1.788,3.783-2.337c0.204-0.548,0.711-2.474-1.334-4.241l-6.234-5.394  c-0.19-0.18-0.464-0.779-0.476-1.046V28.537c0-2.757-2.243-5-5-5h-4.995c-2.182,0-4.042,1.405-4.723,3.357l-9.664-8.36  C49.294,17.713,48.06,17.261,46.769,17.261L46.769,17.261z"></path></svg></g><path fill="#2f2f2f" fill-rule="nonzero" d="M16.60 0.24L22.64 0.24L14.08 17.04L14.08 28.72L8.56 28.72L8.56 17.04L0 0.24L6.04 0.24L11.36 11.72L16.60 0.24ZM46.96 13.16L46.96 13.16L46.96 15.32Q46.96 22.48 44.26 25.72Q41.56 28.96 35.60 28.96Q29.64 28.96 26.98 25.72Q24.32 22.48 24.32 15.20L24.32 15.20L24.32 13.12Q24.32 6.48 27.02 3.24Q29.72 0 35.58 0Q41.44 0 44.20 3.28Q46.96 6.56 46.96 13.16ZM41.40 15.20L41.40 15.20L41.40 13.72Q41.40 9.88 40.44 7.60L40.44 7.60Q39.32 4.96 35.64 4.96L35.64 4.96Q31.92 4.96 30.80 7.60L30.80 7.60Q29.88 9.76 29.88 13.72L29.88 13.72L29.88 15.20Q29.88 20.36 31.32 22.16L31.32 22.16Q31.88 22.92 32.98 23.46Q34.08 24 35.62 24Q37.16 24 38.24 23.48Q39.32 22.96 39.92 22.20Q40.52 21.44 40.84 20.20L40.84 20.20Q41.40 18.24 41.40 15.20ZM67.24 0.24L72.76 0.24L72.76 18.96Q72.76 23.60 69.62 26.28Q66.48 28.96 61.88 28.96Q57.28 28.96 54.14 26.28Q51.00 23.60 51.00 18.96L51.00 18.96L51.00 0.24L56.56 0.24L56.56 18.76Q56.56 21.40 58.02 22.70Q59.48 24 61.88 24Q64.28 24 65.76 22.70Q67.24 21.40 67.24 18.76L67.24 18.76L67.24 0.24ZM93.76 17.24L100.12 28.72L93.68 28.72L88.12 18.16L84.12 18.16L84.12 28.72L78.56 28.72L78.56 6.36Q78.56 3.16 80.04 1.70Q81.52 0.24 85 0.24L85 0.24L89.72 0.24Q93.96 0.24 96.46 2.82Q98.96 5.40 98.96 9.36L98.96 9.36Q98.96 12.24 97.46 14.34Q95.96 16.44 93.76 17.24L93.76 17.24ZM89.36 13.52Q91.12 13.52 92.26 12.30Q93.40 11.08 93.40 9.26Q93.40 7.44 92.30 6.32Q91.20 5.20 89.36 5.20L89.36 5.20L86.60 5.20Q84.12 5.20 84.12 7.72L84.12 7.72L84.12 13.52L89.36 13.52Z" transform="translate(77.414 0) scale(1)"></path><path fill="#2f2f2f" fill-rule="nonzero" d="M21.40 20.32L21.40 20.32Q21.40 24.36 18.44 26.66Q15.48 28.96 10.88 28.96L10.88 28.96Q7.24 28.96 3.84 26.96L3.84 26.96Q2.16 25.92 1.08 24.02Q0 22.12 0 19.68L0 19.68L5.04 19.44Q5.04 21.60 6.88 22.80Q8.72 24 10.96 24L10.96 24Q15.96 24 15.96 20.48L15.96 20.48Q15.96 17.60 12.56 17.08L12.56 17.08L7.92 16.60Q4.44 16.08 2.40 14.12Q0.36 12.16 0.36 8.48Q0.36 4.80 3.28 2.40Q6.20 0 10.66 0Q15.12 0 17.84 2.26Q20.56 4.52 20.56 8.08L20.56 8.08L15.60 8.32Q14.92 4.84 10.92 4.84L10.92 4.84Q8.48 4.84 7.10 5.88Q5.72 6.92 5.72 8.34Q5.72 9.76 6.72 10.58Q7.72 11.40 9.20 11.60L9.20 11.60L13.76 12.08Q21.40 13.12 21.40 20.32ZM44.36 0.24L44.36 5.20L36.72 5.20L36.72 28.72L31.16 28.72L31.16 5.20L23.56 5.20L23.56 0.24L44.36 0.24ZM61.16 2.64L70.28 28.72L64.48 28.72L62.88 23.80L53.32 23.80L51.76 28.72L45.96 28.72L55.08 2.64Q55.68 1.28 56.42 0.76Q57.16 0.24 58.24 0.24Q59.32 0.24 59.98 0.72Q60.64 1.20 61.16 2.64L61.16 2.64ZM54.72 19.12L61.60 19.12L58.24 7.84L54.72 19.12ZM87.60 0.24L93.64 0.24L85.08 17.04L85.08 28.72L79.56 28.72L79.56 17.04L71 0.24L77.04 0.24L82.36 11.72L87.60 0.24Z" transform="translate(77.414 36.96) scale(1.07)"></path></svg>